<?xml version="1.0" encoding="UTF-8"?>
<svg id="Layer_1" xmlns="http://www.w3.org/2000/svg" version="1.1" viewBox="0 0 250 250">
  <!-- Generator: Adobe Illustrator 29.0.0, SVG Export Plug-In . SVG Version: 2.1.0 Build 186)  -->
  <defs>
    <style>
      .st0 {
        fill: #323232;
      }

      .st1 {
        fill: none;
        stroke: #1772fe;
        stroke-miterlimit: 10;
      }

      .st2 {
        fill: #030302;
      }

      .st3 {
        fill: #fee644;
      }

      .st4 {
        fill: #ea2c26;
      }

      .st5 {
        fill: #89440b;
      }

      .st6 {
        fill: #040202;
      }

      .st7 {
        fill: #af6f35;
      }

      .st8 {
        fill: #0a0100;
      }

      .st9 {
        fill: #1772fe;
      }

      .st10 {
        fill: #fedfce;
      }
    </style>
  </defs>
  <g>
    <path class="st8" d="M231.51,176.06c-3.99-4.05-7.98-8.1-11.97-12.14-.95-.97-2.35-1.36-3.66-1.03-18.57,4.71-32.75,10.09-42.42,14.21-10.63,4.54-18.47,8.7-32.78,12.86-10.64,3.09-21.97,5.55-21.97,5.55-7.16,1.55-11.66,2.27-20.48,4.35-5.76,1.36-10.45,2.6-13.53,3.46-2.49-4.02-5.03-8.52-7.48-13.5-1.81-3.68-3.39-7.23-4.75-10.6-.56-1.37-1.84-2.3-3.31-2.41-1.13-.07-2.4-.08-3.77.04-1.1.1-2.11.26-3.02.46-1.14.26-1.86,1.36-1.61,2.5,1.14,4.98,2.94,10.8,5.83,17,1.74,3.7,3.6,6.96,5.42,9.79-10.69,1.29-22.69,1.76-35.68.67-2.54-.21-9.58-1.3-12.3-1.65-.09-.01-.18-.03-.26-.04-.47-.05-.93,0-1.35.17-3.5,1.34-2.88,9.44.53,18.35,3.41,8.91,8.33,15.26,11.83,13.92,11.51-.8,27.75-2.44,45.54-5.97,10.16-2.01,17.28-3.43,26.04-6.18,2.36-.75,6.83-2.21,13.3-3.92,6.23-1.65,10.68-2.58,12.18-2.91,9.73-2.15,16.3-6.11,32.51-13.88,16.3-7.81,24.46-11.71,34.09-14.89,8.7-2.87,23.16-6.9,23.96-7.11,2.86-.79,5.47-1.5,7.76-2.11,2.22-.59,2.97-3.35,1.35-4.99ZM32.64,232.64c-1.08.42-3.88-4.27-6.25-10.46-2.37-6.2-3.41-11.56-2.34-11.97,1.08-.42,4.6,4.27,6.98,10.47,2.37,6.19,2.7,11.54,1.61,11.96ZM218.97,179.18c-8.39,2.3-16.51,5.09-27.01,9.42-10.87,4.48-10.97,5.11-26.14,11.83-6.94,3.06-14.83,6.56-23.86,10.06-6.87,2.67-19.62,7.57-35.92,11.78-8.46,2.18-20.84,4.33-45.26,8.51-9.98,1.71-18.21,3.09-23.66,3.99.86-3.51.16-9.27-2.16-15.3-1.17-3.06-2.6-5.79-4.11-8,2.16.18,4.36.33,6.59.45,13.56.72,26.26.06,37.96-1.43,1.45-.18,2.27-1.76,1.57-3.05-.75-1.37-1.49-2.77-2.22-4.19-3.96-7.72-7.09-15.2-9.57-22.21.44.05.97.07,1.58,0,.95-.1,1.7-.38,2.21-.62.5,1.77,1.07,3.58,1.74,5.44,3.05,8.35,7.27,15.11,11.43,20.4.85,1.08,2.26,1.56,3.59,1.23,7.71-1.86,14.01-3.31,18.44-4.31,8.22-1.84,16.39-3.85,24.6-5.7,2.92-.66,5.39-1.2,8.79-2.29,7.09-2.29,12-4.94,13.8-5.88,4.32-2.26,11.93-4.99,27.15-10.43,10.44-3.73,23.32-8.02,38.33-12.33,1.34,1.51,2.73,3.03,4.15,4.56,1.97,2.12,3.92,4.15,5.85,6.09-1.93.46-4.64,1.11-7.84,1.99Z"/>
    <path class="st7" d="M31.03,220.69c2.37,6.19,2.7,11.54,1.61,11.96-1.08.42-3.88-4.27-6.25-10.46-2.37-6.2-3.41-11.56-2.34-11.97,1.08-.42,4.6,4.27,6.98,10.47Z"/>
    <path class="st5" d="M226.81,177.19c-1.93.46-4.64,1.11-7.84,1.99-8.39,2.3-16.51,5.09-27.01,9.42-10.87,4.48-10.97,5.11-26.14,11.83-6.94,3.06-14.83,6.56-23.86,10.06-6.87,2.67-19.62,7.57-35.92,11.78-8.46,2.18-20.84,4.33-45.26,8.51-9.98,1.71-18.21,3.09-23.66,3.99.86-3.51.16-9.27-2.16-15.3-1.17-3.06-2.6-5.79-4.11-8,2.16.18,4.36.33,6.59.45,13.56.72,26.26.06,37.96-1.43,1.45-.18,2.27-1.76,1.57-3.05-.75-1.37-1.49-2.77-2.22-4.19-3.96-7.72-7.09-15.2-9.57-22.21.44.05.97.07,1.58,0,.95-.1,1.7-.38,2.21-.62.5,1.77,1.07,3.58,1.74,5.44,3.05,8.35,7.27,15.11,11.43,20.4.85,1.08,2.26,1.56,3.59,1.23,7.71-1.86,14.01-3.31,18.44-4.31,8.22-1.84,16.39-3.85,24.6-5.7,2.92-.66,5.39-1.2,8.79-2.29,7.09-2.29,12-4.94,13.8-5.88,4.32-2.26,11.93-4.99,27.15-10.43,10.44-3.73,23.32-8.02,38.33-12.33,1.34,1.51,2.73,3.03,4.15,4.56,1.97,2.12,3.92,4.15,5.85,6.09Z"/>
    <line class="st1" x1="37.1" y1="234.76" x2="37.1" y2="234.76"/>
  </g>
  <g>
    <path class="st6" d="M131.82,189.95c1.16-1.28.96-3.27-.41-4.31s-2.68-1.7-3.6-2.1c-3.13-1.34-5.89-1.38-7.6-1.39-1.92-.01-3.5.22-4.6.44-6.36,5.31-11.8,9.71-15.94,13.01-9.23,7.35-12.04,9.27-15.07,11.05-4.72,2.77-9.08,4.67-12.6,5.97-2.09.78-4.06,1.85-5.83,3.21-1.95,1.49-4.01,3.11-5.97,4.62-1.75,1.34-4.27.92-5.49-.91l-.04-.07c-.88-1.32-.83-3.03.13-4.28,2.86-3.75,6.17-8.04,8.82-11.66,7.4-10.1,14.44-20.1,21.14-29.98-3.02-.02-6.33-.22-9.87-.69-.02,0-.03,0-.05,0-1.99-.26-2.86-2.65-1.54-4.15.78-.89,1.61-1.87,2.48-2.92,0,0,4.94-6.02,8.68-12.04,3.7-5.95,4.32-8.9,9.42-21.69,4.7-11.79,7.05-17.69,9.76-22.25,4.51-7.6,9.88-13.41,14.86-17.8-1.3-.88-3.21-2.38-4.93-4.72-5.11-6.95-3.87-14.96-3.56-16.65.35-1.94,1.23-5.32,3.75-8.96-.87-1.23-2.01-3.18-2.58-5.77-1.45-6.57,1.9-12.14,3.34-14.54,6.65-11.05,19.35-14.15,23.99-15.28,3.47-.85,9.15-2.17,16.36-.88,7.89,1.41,13.13,5.15,16.79,7.77,3.9,2.79,8.8,6.28,12.07,12.7,2.4,4.71,3.28,9.62,3.28,9.62.63,3.53.27,4.9,1.22,8.94.84,3.59,1.28,5.44,2.74,7.39,1.94,2.59,3.51,2.44,7.55,5.75,0,0,2.81,2.3,4.99,4.95,4.02,4.88,5.05,10.26,5.81,14.22,1.79,9.31.16,16.79-.25,18.52,0,0-2.49,10.68-10.65,21.52-.57.76-2.19,2.85-4.01,5.94-2.03,3.46-3.15,6.18-3.51,7-1.45,3.35-4.69,8.34-12.61,15.36.03.54.16,1.41.78,2.1.24.27.86.85,3.22,1.1,2.16.23,2.6-.14,4.85.04,1.54.12,2.33.19,3.26.69,1.64.88,2.36,2.34,2.55,2.74.2.43,1.31,2.77.28,4.5-.77,1.29-2.36,1.64-3.98,1.9-2.62.43-6.5.85-11.54.64-.5.7-1.3,1.7-2.43,2.74-1.24,1.14-2.79,2.55-5.16,3.13-1.28.31-3,.73-4.63-.22-1.7-1-2.57-3.06-2.37-4.8.11-.94.59-1.66,1.54-3.06,1.97-2.89,3.69-4.21,3.49-4.48-.19-.26-1.93.86-4.58,2.19-2.47,1.24-4.35,1.96-6.45,2.77-2.4.93-5.79,2.1-10,3.12-1.85.45-2.82,2.47-2,4.18h0c.38.79,1.19,1.27,2.07,1.21.71-.05,1.54-.05,2.46.02,1.67.13,3.24.26,4.87,1.24.79.48,2.43,1.46,2.99,3.45.13.48.53,2.16-.34,3.58-.87,1.42-2.57,1.88-4.71,2.22-2.54.4-6.44.76-11.51.23l-6.27,4.65c-1.58,1.17-3.71,1.24-5.36.19h0c-2.47-1.58-2.92-5-.95-7.17l3.47-3.81Z"/>
    <path class="st9" d="M102.49,171.69c-2.34,3.55-4.94,7.17-7.83,10.82-11.29,14.3-23.56,24.84-34.51,32.55,2.24-2.82,4.48-5.71,6.71-8.67,8.48-11.29,15.93-22.44,22.47-33.28,1.37.06,2.87.07,4.45-.02,3.34-.19,6.27-.75,8.7-1.4Z"/>
    <path class="st9" d="M110.61,181.94c-10.83,7.98-21.65,15.97-32.48,23.95,2.95-2.73,5.97-5.68,9.01-8.88,5.46-5.72,10.18-11.37,14.27-16.72.96.45,2.16.91,3.59,1.24,2.24.52,4.21.52,5.61.4Z"/>
    <path class="st9" d="M154.24,131.14c-1.56,4.26-4.32,9.79-9.16,15.37-10.28,11.84-22.99,15.85-31.83,18.63-13.69,4.32-26.21,4.69-35.72,3.92,4.38-4.95,7.56-9.54,9.79-13.11.77-1.23,4.37-7.02,8.03-15.74.27.88.74,1.93,1.56,2.93,2.03,2.45,4.87,2.92,6.22,3.15,2.73.45,4.98-.15,6.23-.6.2.51.53,1.2,1.15,1.85,2.3,2.39,6.19,1.74,7.45,1.53,3.72-.62,6.11-2.92,7.03-3.93.72.32,1.76.72,3.07.98,1.26.25,4.1.75,7.25-.55,3.32-1.36,5.02-3.93,5.59-4.89,1.36-.13,2.54-.41,3.56-.76,4.89-1.68,7.97-5.58,9.77-8.78Z"/>
    <path class="st3" d="M156.19,123.87c-.18,1.11-.66,3.77-1.95,7.27-1.8,3.19-4.87,7.09-9.77,8.78-1.01.35-2.19.63-3.56.76-.57.96-2.27,3.53-5.59,4.89-3.15,1.3-5.99.79-7.25.55-1.31-.26-2.35-.65-3.07-.98-.93,1.01-3.31,3.31-7.03,3.93-1.26.21-5.15.86-7.45-1.53-.62-.64-.96-1.34-1.15-1.85-1.25.45-3.5,1.05-6.23.6-1.36-.22-4.19-.69-6.22-3.15-.83-1-1.3-2.05-1.56-2.93.11-.28.22-.55.34-.83,2.57-6.26,1.91-6.1,4.42-12.47,1.24-3.14,2.68-6.74,4.64-10.64.46.64,1.08,1.34,1.91,1.96,2.9,2.17,6.13,1.86,6.9,1.77.28.77.83,1.94,1.94,2.97,2.43,2.26,5.68,2.09,7.16,2.01,2.97-.16,5.18-1.37,6.36-2.14.73.26,1.79.57,3.1.67.93.07,4.1.27,7.26-1.76,3.25-2.09,4.39-5.17,4.69-6.09.68.04,1.66.02,2.74-.36,2.99-1.03,4.31-3.85,4.85-5.02,1.02-2.16,1.15-4.26,1.04-5.8,1.26,1.77,1.94,3.3,2.29,4.09,2.64,6.05,1.79,11.73,1.21,15.31Z"/>
    <path class="st4" d="M198.85,110.57c.04,10.78-2.75,18.82-4.36,23.31-1.88,5.25-4.84,13.28-11.99,21.47-1.22,1.39-7.42,8.36-18.07,13.99-5.66,2.99-10.88,4.7-14.92,5.72-1.43.36-2.74,1.08-3.83,2.09l-.03.03c-2.32,2.18-2.09,3.65-3.88,5.22-1.59,1.41-4.07,2.26-6.22,1.77-1.63-.37-1.6-1.18-4.34-2.97-.89-.58-3.59-2.31-6.84-2.95-2.56-.5-4.51-.15-5.79.02-3.13.41-7.8.42-14.33-1.49.67-.55,1.45-1.29,2.2-2.27,1.28-1.68,1.92-3.34,2.25-4.49,3.04-.47,7.08-1.3,11.67-2.89,10.62-3.69,17.54-9.14,19.58-10.82,7.89-6.49,12.09-13.28,13.19-15.1,2.69-4.49,6.74-11.43,7.18-21.07.16-3.6.39-8.54-2.23-13.99-3.1-6.45-8.43-9.92-11.57-11.54-.89-.46-1.98-.08-2.42.83,0,0,0,.02-.01.03-.42.87-.07,1.93.79,2.36,1.28.63,2.77,1.53,4.27,2.81,1.51,1.28,2.65,2.61,3.52,3.84h0c.11,1.55-.02,3.64-1.04,5.81-.54,1.17-1.87,3.98-4.85,5.02-1.09.38-2.07.4-2.74.36-.3.92-1.44,4.01-4.69,6.09-3.17,2.03-6.33,1.83-7.26,1.76-1.3-.1-2.37-.41-3.1-.67-1.17.77-3.39,1.98-6.36,2.14-1.48.08-4.73.26-7.16-2.01-1.1-1.02-1.66-2.2-1.94-2.97-.77.09-4,.4-6.9-1.77-.82-.62-1.45-1.32-1.91-1.96,1.51-3.02,3.34-6.2,5.63-9.48,2.41-3.46,6.08-8.09,11.42-12.91,1.09.65,2.9,1.53,5.26,1.89,1.08.16,5.15.78,5.88-.76.52-1.12-.79-3.17-3.1-4.91.81-.03,1.98-.14,3.37-.49,3.61-.91,6.03-2.81,7.17-3.84,1.35-1.22,2.46-2.22,3.18-4,1-2.46.55-4.72.22-6.44-.06-.33-.14-.68-.22-1.05,3.29-1.08,8-3.15,11.77-7.1,2.27-2.39,3.13-4.33,3.44-5.1,1.38-3.45,1.05-6.45.9-7.44-.15-1.04-.58-3.71-2.6-6.35-2.4-3.12-5.52-4.19-6.6-4.55-3.96-1.3-7.31-.47-8.49-.16-.99.26-8.03,2.23-10.55,8.95-.8,2.1-.91,4.07-.83,5.52-.12-.07-.24-.14-.35-.2-4-2.08-9.34-1.52-13.9,1.33-.58-.99-1.32-2.49-1.66-4.41-1.1-6.1,2.63-11.18,4.21-13.33,4.53-6.16,10.66-8.5,14.93-10.13,3.17-1.2,8.57-3.21,15.74-2.69,6.74.48,11.6,2.93,14.28,4.31,4.38,2.26,7.31,4.78,8.54,5.9,1.73,1.57,4.79,4.41,7.33,9.09.77,1.42,2.23,4.14,3.05,7.95.68,3.16.22,3.82,1.04,7.84.5,2.43.93,4.53,2.16,6.98,1.35,2.7,2.33,3.15,4.04,5.8.53.82,1.81,2.91,3.43,7.93,3.13,9.61,5.38,16.54,5.41,26.14Z"/>
    <path class="st4" d="M203.26,90.82c-.3.75-.75,1.59-1.43,2.42-.36.44-.74.82-1.11,1.13-1.22-5.38-2.91-10.03-4.53-13.79,1.13,1.1,2.92,3.01,4.64,5.69.96,1.5,1.76,3.03,2.42,4.55Z"/>
    <path class="st3" d="M206.06,107.63c-.29.87-.78,1.91-1.61,2.93-.63.77-1.31,1.33-1.89,1.73.17-6.57-.6-12.6-1.82-17.92.37-.31.74-.68,1.11-1.13.68-.82,1.13-1.67,1.43-2.42,2.66,6.15,3.05,12.27,2.8,16.81Z"/>
    <path class="st9" d="M206.06,107.63c-.19,3.37-.73,5.86-.96,6.84-.55,2.36-1.64,6-3.96,10.15.59-2.89,1.05-6.03,1.28-9.4.07-.99.11-1.97.14-2.94.59-.4,1.26-.96,1.89-1.73.83-1.02,1.32-2.06,1.61-2.93Z"/>
    <path class="st10" d="M132.53,71.63c-.68,1.42-1.31,1.49-3.15,3.6-1.65,1.87-2.92,3.32-3.7,5.46-1.13,3.09-.64,6-.42,7.32.22,1.33.57,2.41.86,3.17-1.56-.48-4.35-1.58-6.93-4.08-3.87-3.75-4.76-8.22-5.12-10.18-.4-2.18-1.09-5.96.78-9.97.57-1.22,1.78-3.8,4.74-5.35.6-.31,3.63-1.83,7.31-.76.8.23,4.67,1.35,5.97,5.04,1,2.83-.16,5.37-.34,5.75Z"/>
    <path class="st0" d="M136.22,70.64c.69.51,1.55,1.27,2.31,2.36.74,1.07,1.19,2.16,1.45,3.14.5,1.85.05,3.85-1.21,5.28,0,0-.02.02-.02.03-3.49,3.95-9.21,4.6-9.44,4.02-.12-.3,1.32-.83,2.71-2.03,2.09-1.81,4.25-5.31,4.21-12.81Z"/>
    <path class="st10" d="M159.67,54.64c.14.99.48,3.99-.9,7.44-.31.77-1.17,2.71-3.44,5.1-3.77,3.95-8.48,6.02-11.77,7.1-.31-1.34-.83-2.91-2.1-4.44-1.68-2.03-3.74-2.87-4.72-3.2-.16-.97-.53-2.43-1.43-4,0,0-1.64-2.84-4.69-4.57-.08-1.45.03-3.42.83-5.52,2.52-6.72,9.56-8.69,10.55-8.95,1.18-.31,4.53-1.14,8.49.16,1.08.36,4.19,1.43,6.6,4.55,2.02,2.64,2.45,5.31,2.6,6.35Z"/>
    <path class="st2" d="M149.12,58.17c-1.24.35-2.31-.13-2.97-.43-.45-.2-3.05-1.37-3.55-4.14-.26-1.44-.04-3.77,1.76-4.94,1.87-1.21,4.04-.26,4.31-.14,1.81.82,2.46,2.51,2.76,3.27.29.74.81,2.07.3,3.62-.09.29-.77,2.24-2.61,2.77Z"/>
    <path class="st0" d="M154.48,191.37c-.07.63-4.18.68-4.81.68-2.68.02-4.56-.33-8.02-.16-.73.04-1.34.09-2.08.36-1.65.61-2.28,1.74-3.32,2.77-2.35,2.32-5.71,3.1-6.02,2.65-.23-.34,1.02-1.61,2.87-3.5,1.51-1.54,2.05-1.88,2.6-2.87.73-1.32.84-2.66.82-3.56,1.92-.45,3.85-.89,5.77-1.33.02.32.09.82.39,1.3.46.78,1.23,1.12,1.79,1.32,2.15.78,3.66.4,6,.79,1.92.32,4.07,1.09,4.02,1.55Z"/>
    <path class="st0" d="M190.02,173.25c0,.43-2.99.89-5.06,1.1-3.68.38-6.69.19-8.64-.03-.38.43-.94,1.04-1.64,1.78-2.66,2.83-3.58,3.51-3.96,3.77-.42.3-2.98,2.07-3.51,1.54-.49-.49.89-2.72,1.65-3.78,1.12-1.56,1.68-1.69,2.21-2.72.47-.91.83-2.37.17-4.74.56-.31,1.17-.68,1.79-1.12.77-.54,1.43-1.09,1.99-1.6.17.57.51,1.44,1.23,2.26.46.51,1.27,1.23,3.21,1.85,1.8.58,2.66.48,5.7.81,2.56.28,4.84.52,4.85.89Z"/>
  </g>
</svg>